<?xml version="1.0" encoding="utf-8"?>
<!-- Generator: Adobe Illustrator 19.1.0, SVG Export Plug-In . SVG Version: 6.00 Build 0)  -->
<svg version="1.1" xmlns="http://www.w3.org/2000/svg" xmlns:xlink="http://www.w3.org/1999/xlink" x="0px" y="0px"
	 viewBox="0 0 1158 241" style="enable-background:new 0 0 1158 241;" xml:space="preserve">
<style type="text/css">
	.st0{fill:#29ABE2;stroke:#000000;stroke-miterlimit:10;}
	.st1{fill:#99E9FF;}
	.st2{fill:#FFFFFF;}
	.st3{fill:#CCF2FF;}
</style>
<g id="background">
</g>
<g id="backclouds">
</g>
<g id="text">
</g>
<g id="middleclouds">
	<path class="st3" d="M294,124c0-23.2-18.8-42-42-42c-1.3,0-2.5,0.1-3.7,0.2c0.5-3.3,0.7-6.7,0.7-10.2c0-39.8-32.2-72-72-72
		s-72,32.2-72,72c0,4.1,0.4,8,1,11.9c-9.9-5-21.1-7.9-33-7.9c-40.3,0-73,32.7-73,73s32.7,73,73,73c17.5,0,33.6-6.2,46.2-16.5
		c13.1,20.7,36.3,34.5,62.7,34.5c40.9,0,74.1-33.2,74.1-74.1c0,0,0-0.1,0-0.1C277.3,163.8,294,145.8,294,124z"/>
	<path class="st3" d="M530,110c-8,0-15.6,1.7-22.5,4.8c6-9,9.5-19.7,9.5-31.3c0-31.2-25.3-56.5-56.5-56.5
		c-23.1,0-42.9,13.8-51.7,33.7c-6.5-1.7-13.3-2.7-20.3-2.7c-43.4,0-78.5,35.1-78.5,78.5c0,43.4,35.1,78.5,78.5,78.5
		c10.5,0,20.6-2.1,29.8-5.9c8.9,18.8,28,31.9,50.2,31.9c18.7,0,35.2-9.3,45.3-23.4c5.1,1.6,10.6,2.4,16.2,2.4c30.4,0,55-24.6,55-55
		S560.4,110,530,110z"/>
	<path class="st3" d="M873,117.1c-0.4-27.8-18.3-51.4-43.1-60.3C827.7,25.1,801.3,0,769,0c-29.4,0-53.9,20.8-59.7,48.5
		c-8.2-4.1-17.5-6.5-27.3-6.5c-33.7,0-61,27.3-61,61c0,33.7,27.3,61,61,61c2.8,0,5.5-0.2,8.2-0.6c-0.2,1.7-0.2,3.4-0.2,5.1
		c0,29.5,24,53.5,53.5,53.5c25,0,45.9-17.1,51.8-40.2c4.1,0.8,8.3,1.2,12.7,1.2c11.8,0,22.9-3.2,32.5-8.7c6.6,9.5,17.6,15.7,30,15.7
		c20.2,0,36.5-16.3,36.5-36.5C907,134.2,892,118.4,873,117.1z"/>
	<path class="st3" d="M1158,98.5c0-29-23.5-52.5-52.5-52.5c-16.9,0-31.9,8-41.5,20.3c-2.1-0.2-4.3-0.3-6.5-0.3
		c-8.5,0-16.5,1.7-23.9,4.8c2.2-4.7,3.4-9.8,3.4-15.3c0-20.2-16.3-36.5-36.5-36.5c-16.9,0-31.1,11.5-35.3,27c-0.4,0-0.8,0-1.2,0
		c-24.3,0-44,19.7-44,44c0,16.8,9.4,31.4,23.2,38.8c-4.6,6.8-7.2,14.9-7.2,23.7c0,23.5,19,42.5,42.5,42.5c16.1,0,30.2-9,37.4-22.2
		c3.1,2.8,6.4,5.3,10,7.5c4.9,28.2,29.5,49.7,59.1,49.7c33.1,0,60-26.9,60-60c0-10.8-2.9-20.9-7.8-29.6
		C1149.8,130.8,1158,115.6,1158,98.5z"/>
</g>
<g id="frontclouds">
</g>
</svg>
