<?xml version="1.0" encoding="utf-8"?>
<!-- Generator: Adobe Illustrator 19.1.0, SVG Export Plug-In . SVG Version: 6.00 Build 0)  -->
<svg version="1.1" xmlns="http://www.w3.org/2000/svg" xmlns:xlink="http://www.w3.org/1999/xlink" x="0px" y="0px"
	 viewBox="0 0 299.8 73.2" style="enable-background:new 0 0 299.8 73.2;" xml:space="preserve">
<style type="text/css">
	.st0{fill:#29ABE2;stroke:#000000;stroke-miterlimit:10;}
	.st1{fill:#99E9FF;}
	.st2{fill:#FFFFFF;}
	.st3{fill:url(#SVGID_1_);}
	.st4{fill:url(#SVGID_2_);}
	.st5{fill:url(#SVGID_3_);}
	.st6{fill:url(#SVGID_4_);}
</style>
<g id="background">
</g>
<g id="backclouds">
</g>
<g id="text">
	<g>
		<path class="st2" d="M0,1.8h7.5v69.7H0V1.8z"/>
		<path class="st2" d="M24.8,71.4V1.8h15.6c11.3,0,19.5,0.8,24.6,2.5c7.3,2.4,13,6.5,17.1,12.3c4.1,5.8,6.2,12.8,6.2,20.9
			c0,7-1.6,13.1-4.9,18.4c-3.3,5.3-7.5,9.2-12.7,11.7c-5.2,2.5-12.5,3.8-21.9,3.8H24.8z M32,64.8h8.7c10.4,0,17.7-0.6,21.7-1.8
			c5.7-1.7,10.1-4.8,13.4-9.2c3.2-4.4,4.9-9.9,4.9-16.3c0-6.7-1.8-12.5-5.3-17.2c-3.5-4.8-8.4-8-14.7-9.8c-4.7-1.3-12.5-2-23.3-2H32
			V64.8z"/>
		<path class="st2" d="M97.1,42.3h28.2v5.8H97.1V42.3z"/>
		<path class="st2" d="M140.8,23.5h-7.2c0.2-6.9,2.7-12.5,7.5-16.9c4.8-4.4,10.7-6.6,17.7-6.6c6.9,0,12.6,2.1,16.8,6.2
			c4.3,4.1,6.4,9,6.4,14.6c0,3.9-1,7.7-3.1,11.1c-2,3.5-6,8.1-11.9,14l-18.8,18.7H183v6.7h-51.2l28.8-28.8
			c5.8-5.8,9.6-10.1,11.4-12.9c1.8-2.8,2.6-5.7,2.6-8.8c0-3.9-1.6-7.3-4.7-10.1c-3.2-2.8-7-4.2-11.6-4.2c-4.8,0-8.8,1.5-12,4.5
			C143,14,141.2,18.2,140.8,23.5z"/>
		<path class="st2" d="M207,73.2l-6.2-3.7L221.2,41c-2.7,0.8-5.3,1.2-7.7,1.2c-6,0-11.1-2-15.3-6c-4.2-4-6.3-8.9-6.3-14.8
			c0-4,1-7.6,3-10.8s4.9-5.8,8.6-7.7C207.3,1,211.2,0,215.5,0c4.2,0,8,0.9,11.6,2.8c3.5,1.9,6.3,4.5,8.3,7.8c2,3.3,3,6.9,3,10.7
			c0,2.9-0.6,5.9-1.9,9c-1.2,3.1-3.5,6.9-6.7,11.3L207,73.2z M215.2,36.1c4.4,0,8.2-1.4,11.2-4.3c3.1-2.9,4.6-6.3,4.6-10.3
			c0-4-1.5-7.5-4.6-10.3c-3.1-2.9-6.8-4.3-11.3-4.3c-4.4,0-8.1,1.4-11.2,4.3c-3.1,2.9-4.6,6.3-4.6,10.3c0,4,1.5,7.5,4.7,10.3
			C207.1,34.7,210.8,36.1,215.2,36.1z"/>
		<path class="st2" d="M248.3,36.6c0-9.2,1.1-16.3,3.2-21.3c2.1-5,5.2-8.8,9-11.4c3.9-2.6,8.3-3.9,13.1-3.9c4.9,0,9.3,1.3,13.3,3.9
			c4,2.6,7.1,6.5,9.4,11.7c2.3,5.2,3.5,12.2,3.5,21c0,8.7-1.1,15.7-3.4,20.9c-2.3,5.2-5.4,9.1-9.4,11.7c-4,2.6-8.4,4-13.3,4
			c-4.8,0-9.2-1.3-13-3.8s-6.9-6.4-9-11.4C249.4,52.8,248.3,45.7,248.3,36.6z M255.5,36.7c0,7.9,0.8,13.8,2.3,17.8
			c1.5,4,3.8,7.1,6.7,9.2s6.1,3.1,9.4,3.1c3.3,0,6.5-1,9.4-3.1s5.1-5.1,6.6-9.2c1.9-5,2.8-10.9,2.8-17.9c0-7-0.8-12.8-2.5-17.2
			c-1.7-4.5-4-7.7-6.9-9.8c-3-2.1-6.1-3.1-9.4-3.1c-3.4,0-6.5,1-9.4,3.1c-2.9,2.1-5.2,5.1-6.7,9.1S255.5,28.8,255.5,36.7z"/>
	</g>
</g>
<g id="middleclouds">
</g>
<g id="frontclouds">
</g>
</svg>
