<?xml version="1.0" encoding="utf-8"?>
<!-- Generator: Adobe Illustrator 19.1.0, SVG Export Plug-In . SVG Version: 6.00 Build 0)  -->
<svg version="1.1" xmlns="http://www.w3.org/2000/svg" xmlns:xlink="http://www.w3.org/1999/xlink" x="0px" y="0px"
	 viewBox="0 0 1324 236" style="enable-background:new 0 0 1324 236;" xml:space="preserve">
<style type="text/css">
	.st0{fill:#29ABE2;stroke:#000000;stroke-miterlimit:10;}
	.st1{fill:#99E9FF;}
	.st2{fill:#FFFFFF;}
	.st3{fill:url(#SVGID_1_);}
	.st4{fill:url(#SVGID_2_);}
	.st5{fill:url(#SVGID_3_);}
	.st6{fill:url(#SVGID_4_);}
</style>
<g id="background">
</g>
<g id="backclouds">
	<path class="st1" d="M288.6,182.2c3.4-6.9,5.4-14.6,5.4-22.7c0-28.2-22.8-51-51-51c-17.5,0-32.9,8.8-42.1,22.2
		c-5.5-3.9-12.2-6.2-19.4-6.2c-18.5,0-33.5,15-33.5,33.5s15,33.5,33.5,33.5c6.7,0,12.8-1.9,18.1-5.3c9,14.6,25.1,24.3,43.4,24.3
		c4.9,0,9.6-0.7,14-2c0.8,13.4,11.9,24,25.5,24c14.1,0,25.5-11.4,25.5-25.5C308,195,299.8,185,288.6,182.2z"/>
	<path class="st1" d="M547.5,162.5c-0.2,0-0.5,0-0.7,0c0.8-3.4,1.2-6.9,1.2-10.5c0-26-21-47-47-47c-15.3,0-28.9,7.3-37.5,18.7
		c-8-4.6-17.2-7.2-27-7.2c-30.1,0-54.5,24.4-54.5,54.5c0,30.1,24.4,54.5,54.5,54.5c12.5,0,24.1-4.2,33.3-11.4
		c4.4,12.7,16.5,21.9,30.7,21.9c16.9,0,30.8-12.9,32.3-29.4c4.1,3.1,9.2,4.9,14.7,4.9c13.5,0,24.5-11,24.5-24.5
		C572,173.5,561,162.5,547.5,162.5z"/>
	<path class="st1" d="M1078.8,134.7c0.1-1.5,0.2-3,0.2-4.5c0-26.9-21.8-48.8-48.8-48.8c-17.7,0-33.2,9.5-41.8,23.6
		c-2.3-0.4-4.6-0.6-7-0.6c-23.5,0-42.5,19-42.5,42.5s19,42.5,42.5,42.5c7.3,0,14.1-1.8,20-5c-1,3.3-1.5,6.9-1.5,10.5
		c0,20.2,16.3,36.5,36.5,36.5c16.9,0,31.1-11,35.2-27c0,0,0,0,0,0c19.5,0,35.2-15.8,35.2-35.2C1107,152.2,1094.9,138,1078.8,134.7z"
		/>
	<path class="st1" d="M751.5,112.5c-0.9-17.3-15.2-31-32.7-31c-8.5,0-16.2,3.2-22,8.5c-4.6-5.2-11.3-8.5-18.8-8.5
		c-10.6,0-19.7,6.6-23.3,16c-20.6,6-35.7,25-35.7,47.5c0,27.3,22.2,49.5,49.5,49.5c12.3,0,23.5-4.5,32.2-11.9
		c7.7,6.8,17.8,10.9,28.8,10.9c24,0,43.5-19.5,43.5-43.5C773,134,764.4,120,751.5,112.5z"/>
	<path class="st1" d="M1183.4,142.2c-3.4-6.9-5.4-14.6-5.4-22.7c0-28.2,22.8-51,51-51c17.5,0,32.9,8.8,42.1,22.2
		c5.5-3.9,12.2-6.2,19.4-6.2c18.5,0,33.5,15,33.5,33.5s-15,33.5-33.5,33.5c-6.7,0-12.8-1.9-18.1-5.3c-9,14.6-25.1,24.3-43.4,24.3
		c-4.9,0-9.6-0.7-14-2c-0.8,13.4-11.9,24-25.5,24c-14.1,0-25.5-11.4-25.5-25.5C1164,155,1172.2,145,1183.4,142.2z"/>
	<path class="st1" d="M775.5,57.5c0.2,0,0.5,0,0.7,0c-0.8-3.4-1.2-6.9-1.2-10.5c0-26,21-47,47-47c15.3,0,28.9,7.3,37.5,18.7
		c8-4.6,17.2-7.2,27-7.2c30.1,0,54.5,24.4,54.5,54.5c0,30.1-24.4,54.5-54.5,54.5c-12.5,0-24.1-4.2-33.3-11.4
		c-4.4,12.7-16.5,21.9-30.7,21.9c-16.9,0-30.8-12.9-32.3-29.4c-4.1,3.1-9.2,4.9-14.7,4.9c-13.5,0-24.5-11-24.5-24.5
		C751,68.5,762,57.5,775.5,57.5z"/>
	<path class="st1" d="M28.2,53.7c-0.1-1.5-0.2-3-0.2-4.5C28,22.3,49.8,0.5,76.8,0.5c17.7,0,33.2,9.5,41.8,23.6
		c2.3-0.4,4.6-0.6,7-0.6c23.5,0,42.5,19,42.5,42.5s-19,42.5-42.5,42.5c-7.3,0-14.1-1.8-20-5c1,3.3,1.5,6.9,1.5,10.5
		c0,20.2-16.3,36.5-36.5,36.5c-16.9,0-31.1-11-35.2-27c0,0,0,0,0,0C15.8,123.5,0,107.7,0,88.2C0,71.2,12.1,57,28.2,53.7z"/>
	<path class="st1" d="M287.5,31.5c0.9-17.3,15.2-31,32.7-31c8.5,0,16.2,3.2,22,8.5c4.6-5.2,11.3-8.5,18.8-8.5
		c10.6,0,19.7,6.6,23.3,16c20.6,6,35.7,25,35.7,47.5c0,27.3-22.2,49.5-49.5,49.5c-12.3,0-23.5-4.5-32.2-11.9
		c-7.7,6.8-17.8,10.9-28.8,10.9c-24,0-43.5-19.5-43.5-43.5C266,53,274.6,39,287.5,31.5z"/>
</g>
<g id="text">
</g>
<g id="middleclouds">
</g>
<g id="frontclouds">
</g>
</svg>
