<?xml version="1.0" encoding="utf-8"?>
<!-- Generator: Adobe Illustrator 19.1.0, SVG Export Plug-In . SVG Version: 6.00 Build 0)  -->
<svg version="1.1" xmlns="http://www.w3.org/2000/svg" xmlns:xlink="http://www.w3.org/1999/xlink" x="0px" y="0px"
	 viewBox="0 0 1633 445.4" style="enable-background:new 0 0 1633 445.4;" xml:space="preserve">
<style type="text/css">
	.st0{fill:#29ABE2;stroke:#000000;stroke-miterlimit:10;}
	.st1{fill:#99E9FF;}
	.st2{fill:#FFFFFF;}
	.st3{fill:url(#SVGID_1_);}
	.st4{fill:url(#SVGID_2_);}
	.st5{fill:url(#SVGID_3_);}
	.st6{fill:url(#SVGID_4_);}
</style>
<g id="background">
</g>
<g id="backclouds">
</g>
<g id="text">
</g>
<g id="middleclouds">
</g>
<g id="frontclouds">
	<path class="st2" d="M426.3,136.3c0-25.4-20.6-46-46-46c-1.4,0-2.7,0.1-4.1,0.2c0.5-3.6,0.8-7.4,0.8-11.2
		c0-43.6-35.3-78.9-78.9-78.9s-78.9,35.3-78.9,78.9c0,4.4,0.4,8.8,1.1,13c-10.9-5.5-23.2-8.6-36.2-8.6c-44.2,0-80,35.8-80,80
		s35.8,80,80,80c19.2,0,36.9-6.8,50.7-18.1c14.4,22.7,39.8,37.9,68.7,37.9c44.9,0,81.3-36.4,81.3-81.3c0,0,0-0.1,0-0.1
		C408,180,426.3,160.3,426.3,136.3z"/>
	<path class="st2" d="M988.8,165.9c0-25.4,20.6-46,46-46c1.4,0,2.7,0.1,4.1,0.2c-0.5-3.6-0.8-7.4-0.8-11.2
		c0-43.6,35.3-78.9,78.9-78.9c43.6,0,78.9,35.3,78.9,78.9c0,4.4-0.4,8.8-1.1,13c10.9-5.5,23.2-8.6,36.2-8.6c44.2,0,80,35.8,80,80
		s-35.8,80-80,80c-19.2,0-36.9-6.8-50.7-18.1c-14.4,22.7-39.8,37.9-68.7,37.9c-44.9,0-81.3-36.4-81.3-81.3c0,0,0-0.1,0-0.1
		C1007.1,209.6,988.8,189.9,988.8,165.9z"/>
	<path class="st2" d="M1169.7,165.9c0-25.4,20.6-46,46-46c1.4,0,2.7,0.1,4.1,0.2c-0.5-3.6-0.8-7.4-0.8-11.2
		c0-43.6,35.3-78.9,78.9-78.9c43.6,0,78.9,35.3,78.9,78.9c0,4.4-0.4,8.8-1.1,13c10.9-5.5,23.2-8.6,36.2-8.6c44.2,0,80,35.8,80,80
		s-35.8,80-80,80c-19.2,0-36.9-6.8-50.7-18.1c-14.4,22.7-39.8,37.9-68.7,37.9c-44.9,0-81.3-36.4-81.3-81.3c0,0,0-0.1,0-0.1
		C1188,209.6,1169.7,189.9,1169.7,165.9z"/>
	<path class="st2" d="M1310.7,135.9c0-25.4,20.6-46,46-46c1.4,0,2.7,0.1,4.1,0.2c-0.5-3.6-0.8-7.4-0.8-11.2
		c0-43.6,35.3-78.9,78.9-78.9c43.6,0,78.9,35.3,78.9,78.9c0,4.4-0.4,8.8-1.1,13c10.9-5.5,23.2-8.6,36.2-8.6c44.2,0,80,35.8,80,80
		s-35.8,80-80,80c-19.2,0-36.9-6.8-50.7-18.1c-14.4,22.7-39.8,37.9-68.7,37.9c-44.9,0-81.3-36.4-81.3-81.3c0,0,0-0.1,0-0.1
		C1329,179.6,1310.7,159.9,1310.7,135.9z"/>
	<path class="st2" d="M847.3,126.5c8.8,0,17.1,1.9,24.6,5.3c-6.6-9.8-10.4-21.6-10.4-34.3c0-34.2,27.7-61.9,61.9-61.9
		c25.3,0,47,15.2,56.7,36.9c7.1-1.9,14.6-2.9,22.3-2.9c47.5,0,86.1,38.5,86.1,86.1c0,47.5-38.5,86.1-86.1,86.1
		c-11.6,0-22.6-2.3-32.7-6.4c-9.7,20.6-30.7,34.9-55.1,34.9c-20.5,0-38.6-10.2-49.6-25.7c-5.6,1.7-11.6,2.7-17.8,2.7
		c-33.3,0-60.3-27-60.3-60.3S814,126.5,847.3,126.5z"/>
	<path class="st2" d="M566.7,144.1c0.4-30.5,20-56.4,47.3-66.1c2.4-34.8,31.3-62.3,66.7-62.3c32.2,0,59.1,22.8,65.5,53.1
		c9-4.5,19.2-7.1,29.9-7.1c36.9,0,66.9,29.9,66.9,66.9c0,36.9-29.9,66.9-66.9,66.9c-3.1,0-6.1-0.2-9-0.6c0.2,1.8,0.3,3.7,0.3,5.6
		c0,32.4-26.3,58.7-58.7,58.7c-27.4,0-50.4-18.7-56.8-44.1c-4.5,0.9-9.1,1.4-13.9,1.4c-13,0-25.2-3.5-35.6-9.6
		c-7.2,10.4-19.3,17.2-32.9,17.2c-22.1,0-40-17.9-40-40C529.4,162.9,545.9,145.5,566.7,144.1z"/>
	<path class="st2" d="M295.5,149c0-31.8,25.8-57.6,57.6-57.6c18.5,0,34.9,8.7,45.5,22.3c2.4-0.2,4.7-0.4,7.2-0.4
		c9.3,0,18.1,1.9,26.2,5.3c-2.4-5.1-3.7-10.8-3.7-16.8c0-22.1,17.9-40,40-40c18.5,0,34.1,12.6,38.7,29.7c0.5,0,0.9,0,1.4,0
		c26.6,0,48.2,21.6,48.2,48.2c0,18.4-10.3,34.4-25.5,42.5c5,7.4,7.9,16.4,7.9,26c0,25.7-20.9,46.6-46.6,46.6
		c-17.7,0-33.1-9.9-41-24.4c-3.4,3.1-7,5.9-11,8.2c-5.3,31-32.3,54.5-64.8,54.5c-36.3,0-65.8-29.5-65.8-65.8
		c0-11.8,3.1-22.9,8.6-32.5C304.4,184.4,295.5,167.7,295.5,149z"/>
	<ellipse class="st2" cx="759" cy="309.4" rx="759" ry="136"/>
</g>
</svg>
