<?xml version="1.0" encoding="utf-8"?>
<!-- Generator: Adobe Illustrator 19.1.0, SVG Export Plug-In . SVG Version: 6.00 Build 0)  -->
<svg version="1.1" xmlns="http://www.w3.org/2000/svg" xmlns:xlink="http://www.w3.org/1999/xlink" x="0px" y="0px"
	 viewBox="0 0 1280 800" style="enable-background:new 0 0 1280 800;" xml:space="preserve">
<style type="text/css">
	.st0{fill:#29ABE2;stroke:#000000;stroke-miterlimit:10;}
	.st1{fill:#99E9FF;}
	.st2{fill:none;}
	.st3{fill:#FFFFFF;}
	.st4{font-family:'CenturyGothic';}
	.st5{font-size:100px;}
	.st6{fill:url(#SVGID_1_);}
	.st7{fill:url(#SVGID_2_);}
	.st8{fill:url(#SVGID_3_);}
	.st9{fill:url(#SVGID_4_);}
</style>
<g id="background">
	<rect class="st0" width="1280" height="800"/>
</g>
<g id="backclouds">
	<path class="st1" d="M266.6,376.7c3.4-6.9,5.4-14.6,5.4-22.7c0-28.2-22.8-51-51-51c-17.5,0-32.9,8.8-42.1,22.2
		c-5.5-3.9-12.2-6.2-19.4-6.2c-18.5,0-33.5,15-33.5,33.5s15,33.5,33.5,33.5c6.7,0,12.8-1.9,18.1-5.3c9,14.6,25.1,24.3,43.4,24.3
		c4.9,0,9.6-0.7,14-2c0.8,13.4,11.9,24,25.5,24c14.1,0,25.5-11.4,25.5-25.5C286,389.5,277.8,379.5,266.6,376.7z"/>
	<path class="st1" d="M525.5,357c-0.2,0-0.5,0-0.7,0c0.8-3.4,1.2-6.9,1.2-10.5c0-26-21-47-47-47c-15.3,0-28.9,7.3-37.5,18.7
		c-8-4.6-17.2-7.2-27-7.2c-30.1,0-54.5,24.4-54.5,54.5c0,30.1,24.4,54.5,54.5,54.5c12.5,0,24.1-4.2,33.3-11.4
		c4.4,12.7,16.5,21.9,30.7,21.9c16.9,0,30.8-12.9,32.3-29.4c4.1,3.1,9.2,4.9,14.7,4.9c13.5,0,24.5-11,24.5-24.5
		C550,368,539,357,525.5,357z"/>
	<path class="st1" d="M1056.8,329.2c0.1-1.5,0.2-3,0.2-4.5c0-26.9-21.8-48.8-48.8-48.8c-17.7,0-33.2,9.5-41.8,23.6
		c-2.3-0.4-4.6-0.6-7-0.6c-23.5,0-42.5,19-42.5,42.5s19,42.5,42.5,42.5c7.3,0,14.1-1.8,20-5c-1,3.3-1.5,6.9-1.5,10.5
		c0,20.2,16.3,36.5,36.5,36.5c16.9,0,31.1-11,35.2-27c0,0,0,0,0,0c19.5,0,35.2-15.8,35.2-35.2C1085,346.7,1072.9,332.5,1056.8,329.2
		z"/>
	<path class="st1" d="M729.5,307c-0.9-17.3-15.2-31-32.7-31c-8.5,0-16.2,3.2-22,8.5c-4.6-5.2-11.3-8.5-18.8-8.5
		c-10.6,0-19.7,6.6-23.3,16c-20.6,6-35.7,25-35.7,47.5c0,27.3,22.2,49.5,49.5,49.5c12.3,0,23.5-4.5,32.2-11.9
		c7.7,6.8,17.8,10.9,28.8,10.9c24,0,43.5-19.5,43.5-43.5C751,328.5,742.4,314.5,729.5,307z"/>
	<path class="st1" d="M1161.4,336.7c-3.4-6.9-5.4-14.6-5.4-22.7c0-28.2,22.8-51,51-51c17.5,0,32.9,8.8,42.1,22.2
		c5.5-3.9,12.2-6.2,19.4-6.2c18.5,0,33.5,15,33.5,33.5s-15,33.5-33.5,33.5c-6.7,0-12.8-1.9-18.1-5.3c-9,14.6-25.1,24.3-43.4,24.3
		c-4.9,0-9.6-0.7-14-2c-0.8,13.4-11.9,24-25.5,24c-14.1,0-25.5-11.4-25.5-25.5C1142,349.5,1150.2,339.5,1161.4,336.7z"/>
	<path class="st1" d="M753.5,252c0.2,0,0.5,0,0.7,0c-0.8-3.4-1.2-6.9-1.2-10.5c0-26,21-47,47-47c15.3,0,28.9,7.3,37.5,18.7
		c8-4.6,17.2-7.2,27-7.2c30.1,0,54.5,24.4,54.5,54.5c0,30.1-24.4,54.5-54.5,54.5c-12.5,0-24.1-4.2-33.3-11.4
		c-4.4,12.7-16.5,21.9-30.7,21.9c-16.9,0-30.8-12.9-32.3-29.4c-4.1,3.1-9.2,4.9-14.7,4.9c-13.5,0-24.5-11-24.5-24.5
		C729,263,740,252,753.5,252z"/>
	<path class="st1" d="M6.2,248.2c-0.1-1.5-0.2-3-0.2-4.5C6,216.8,27.8,195,54.8,195c17.7,0,33.2,9.5,41.8,23.6
		c2.3-0.4,4.6-0.6,7-0.6c23.5,0,42.5,19,42.5,42.5S127,303,103.5,303c-7.3,0-14.1-1.8-20-5c1,3.3,1.5,6.9,1.5,10.5
		c0,20.2-16.3,36.5-36.5,36.5c-16.9,0-31.1-11-35.2-27c0,0,0,0,0,0C-6.2,318-22,302.2-22,282.8C-22,265.7-9.9,251.5,6.2,248.2z"/>
	<path class="st1" d="M265.5,226c0.9-17.3,15.2-31,32.7-31c8.5,0,16.2,3.2,22,8.5c4.6-5.2,11.3-8.5,18.8-8.5
		c10.6,0,19.7,6.6,23.3,16c20.6,6,35.7,25,35.7,47.5c0,27.3-22.2,49.5-49.5,49.5c-12.3,0-23.5-4.5-32.2-11.9
		c-7.7,6.8-17.8,10.9-28.8,10.9c-24,0-43.5-19.5-43.5-43.5C244,247.5,252.6,233.5,265.5,226z"/>
	<rect x="184" y="109" class="st2" width="732" height="122"/>
	<text transform="matrix(1.05 0 0 0.97 394.3457 182.5991)" class="st3 st4 st5">ID-290</text>
</g>
<g id="Layer_5">
</g>
<g id="middleclouds">
	
		<radialGradient id="SVGID_1_" cx="121" cy="509.0128" r="158.9106" fx="270.5959" fy="455.4067" gradientTransform="matrix(1 0 0 0.8228 0 90.222)" gradientUnits="userSpaceOnUse">
		<stop  offset="0" style="stop-color:#29ABE2"/>
		<stop  offset="1" style="stop-color:#FFFFFF"/>
	</radialGradient>
	<path class="st6" d="M259,470c0-23.2-18.8-42-42-42c-1.3,0-2.5,0.1-3.7,0.2c0.5-3.3,0.7-6.7,0.7-10.2c0-39.8-32.2-72-72-72
		s-72,32.2-72,72c0,4.1,0.4,8,1,11.9c-9.9-5-21.1-7.9-33-7.9c-40.3,0-73,32.7-73,73s32.7,73,73,73c17.5,0,33.6-6.2,46.2-16.5
		c13.1,20.7,36.3,34.5,62.7,34.5c40.9,0,74.1-33.2,74.1-74.1c0,0,0-0.1,0-0.1C242.3,509.8,259,491.8,259,470z"/>
	
		<radialGradient id="SVGID_2_" cx="378.5" cy="534" r="187.6306" fx="513.749" fy="403.9502" gradientTransform="matrix(1 0 0 0.6818 0 169.9017)" gradientUnits="userSpaceOnUse">
		<stop  offset="0" style="stop-color:#29ABE2"/>
		<stop  offset="0.9325" style="stop-color:#FFFFFF"/>
	</radialGradient>
	<path class="st7" d="M470,456c-8,0-15.6,1.7-22.5,4.8c6-9,9.5-19.7,9.5-31.3c0-31.2-25.3-56.5-56.5-56.5
		c-23.1,0-42.9,13.8-51.7,33.7c-6.5-1.7-13.3-2.7-20.3-2.7c-43.4,0-78.5,35.1-78.5,78.5c0,43.4,35.1,78.5,78.5,78.5
		c10.5,0,20.6-2.1,29.8-5.9c8.9,18.8,28,31.9,50.2,31.9c18.7,0,35.2-9.3,45.3-23.4c5.1,1.6,10.6,2.4,16.2,2.4c30.4,0,55-24.6,55-55
		S500.4,456,470,456z"/>
	
		<radialGradient id="SVGID_3_" cx="721" cy="492" r="193.1657" fx="536.5837" fy="434.5226" gradientTransform="matrix(1 0 0 0.5229 0 234.7494)" gradientUnits="userSpaceOnUse">
		<stop  offset="0" style="stop-color:#29ABE2"/>
		<stop  offset="1" style="stop-color:#FFFFFF"/>
	</radialGradient>
	<path class="st8" d="M838,463.1c-0.4-27.8-18.3-51.4-43.1-60.3c-2.2-31.7-28.6-56.8-60.8-56.8c-29.4,0-53.9,20.8-59.7,48.5
		c-8.2-4.1-17.5-6.5-27.3-6.5c-33.7,0-61,27.3-61,61c0,33.7,27.3,61,61,61c2.8,0,5.5-0.2,8.2-0.6c-0.2,1.7-0.2,3.4-0.2,5.1
		c0,29.5,24,53.5,53.5,53.5c25,0,45.9-17.1,51.8-40.2c4.1,0.8,8.3,1.2,12.7,1.2c11.8,0,22.9-3.2,32.5-8.7c6.6,9.5,17.6,15.7,30,15.7
		c20.2,0,36.5-16.3,36.5-36.5C872,480.2,857,464.4,838,463.1z"/>
	
		<radialGradient id="SVGID_4_" cx="998" cy="496.5" r="173.1221" gradientTransform="matrix(1 0 0 0.6341 0 181.6923)" gradientUnits="userSpaceOnUse">
		<stop  offset="0" style="stop-color:#29ABE2"/>
		<stop  offset="0.8696" style="stop-color:#FFFFFF"/>
	</radialGradient>
	<path class="st9" d="M1123,444.5c0-29-23.5-52.5-52.5-52.5c-16.9,0-31.9,8-41.5,20.3c-2.1-0.2-4.3-0.3-6.5-0.3
		c-8.5,0-16.5,1.7-23.9,4.8c2.2-4.7,3.4-9.8,3.4-15.3c0-20.2-16.3-36.5-36.5-36.5c-16.9,0-31.1,11.5-35.3,27c-0.4,0-0.8,0-1.2,0
		c-24.3,0-44,19.7-44,44c0,16.8,9.4,31.4,23.2,38.8c-4.6,6.8-7.2,14.9-7.2,23.7c0,23.5,19,42.5,42.5,42.5c16.1,0,30.2-9,37.4-22.2
		c3.1,2.8,6.4,5.3,10,7.5c4.9,28.2,29.5,49.7,59.1,49.7c33.1,0,60-26.9,60-60c0-10.8-2.9-20.9-7.8-29.6
		C1114.8,476.8,1123,461.6,1123,444.5z"/>
</g>
<g id="frontclouds">
	<path class="st3" d="M257.3,570.9c0-25.4-20.6-46-46-46c-1.4,0-2.7,0.1-4.1,0.2c0.5-3.6,0.8-7.4,0.8-11.2
		c0-43.6-35.3-78.9-78.9-78.9s-78.9,35.3-78.9,78.9c0,4.4,0.4,8.8,1.1,13c-10.9-5.5-23.2-8.6-36.2-8.6c-44.2,0-80,35.8-80,80
		c0,44.2,35.8,80,80,80c19.2,0,36.9-6.8,50.7-18.1c14.4,22.7,39.8,37.9,68.7,37.9c44.9,0,81.3-36.4,81.3-81.3c0,0,0-0.1,0-0.1
		C239,614.6,257.3,594.9,257.3,570.9z"/>
	<path class="st3" d="M819.8,600.6c0-25.4,20.6-46,46-46c1.4,0,2.7,0.1,4.1,0.2c-0.5-3.6-0.8-7.4-0.8-11.2
		c0-43.6,35.3-78.9,78.9-78.9s78.9,35.3,78.9,78.9c0,4.4-0.4,8.8-1.1,13c10.9-5.5,23.2-8.6,36.2-8.6c44.2,0,80,35.8,80,80
		s-35.8,80-80,80c-19.2,0-36.9-6.8-50.7-18.1c-14.4,22.7-39.8,37.9-68.7,37.9c-44.9,0-81.3-36.4-81.3-81.3c0,0,0-0.1,0-0.1
		C838.1,644.2,819.8,624.5,819.8,600.6z"/>
	<path class="st3" d="M1000.7,600.6c0-25.4,20.6-46,46-46c1.4,0,2.7,0.1,4.1,0.2c-0.5-3.6-0.8-7.4-0.8-11.2
		c0-43.6,35.3-78.9,78.9-78.9c43.6,0,78.9,35.3,78.9,78.9c0,4.4-0.4,8.8-1.1,13c10.9-5.5,23.2-8.6,36.2-8.6c44.2,0,80,35.8,80,80
		s-35.8,80-80,80c-19.2,0-36.9-6.8-50.7-18.1c-14.4,22.7-39.8,37.9-68.7,37.9c-44.9,0-81.3-36.4-81.3-81.3c0,0,0-0.1,0-0.1
		C1019,644.2,1000.7,624.5,1000.7,600.6z"/>
	<path class="st3" d="M1141.7,570.6c0-25.4,20.6-46,46-46c1.4,0,2.7,0.1,4.1,0.2c-0.5-3.6-0.8-7.4-0.8-11.2
		c0-43.6,35.3-78.9,78.9-78.9c43.6,0,78.9,35.3,78.9,78.9c0,4.4-0.4,8.8-1.1,13c10.9-5.5,23.2-8.6,36.2-8.6c44.2,0,80,35.8,80,80
		s-35.8,80-80,80c-19.2,0-36.9-6.8-50.7-18.1c-14.4,22.7-39.8,37.9-68.7,37.9c-44.9,0-81.3-36.4-81.3-81.3c0,0,0-0.1,0-0.1
		C1160,614.2,1141.7,594.5,1141.7,570.6z"/>
	<path class="st3" d="M678.3,561.1c8.8,0,17.1,1.9,24.6,5.3c-6.6-9.8-10.4-21.6-10.4-34.3c0-34.2,27.7-61.9,61.9-61.9
		c25.3,0,47,15.2,56.7,36.9c7.1-1.9,14.6-2.9,22.3-2.9c47.5,0,86.1,38.5,86.1,86.1c0,47.5-38.5,86.1-86.1,86.1
		c-11.6,0-22.6-2.3-32.7-6.4c-9.7,20.6-30.7,34.9-55.1,34.9c-20.5,0-38.6-10.2-49.6-25.7c-5.6,1.7-11.6,2.7-17.8,2.7
		c-33.3,0-60.3-27-60.3-60.3S645,561.1,678.3,561.1z"/>
	<path class="st3" d="M397.7,578.7c0.4-30.5,20-56.4,47.3-66.1c2.4-34.8,31.3-62.3,66.7-62.3c32.2,0,59.1,22.8,65.5,53.1
		c9-4.5,19.2-7.1,29.9-7.1c36.9,0,66.9,29.9,66.9,66.9c0,36.9-29.9,66.9-66.9,66.9c-3.1,0-6.1-0.2-9-0.6c0.2,1.8,0.3,3.7,0.3,5.6
		c0,32.4-26.3,58.7-58.7,58.7c-27.4,0-50.4-18.7-56.8-44.1c-4.5,0.9-9.1,1.4-13.9,1.4c-13,0-25.2-3.5-35.6-9.6
		c-7.2,10.4-19.3,17.2-32.9,17.2c-22.1,0-40-17.9-40-40C360.4,597.5,376.9,580.1,397.7,578.7z"/>
	<path class="st3" d="M126.5,583.6c0-31.8,25.8-57.6,57.6-57.6c18.5,0,34.9,8.7,45.5,22.3c2.4-0.2,4.7-0.4,7.2-0.4
		c9.3,0,18.1,1.9,26.2,5.3c-2.4-5.1-3.7-10.8-3.7-16.8c0-22.1,17.9-40,40-40c18.5,0,34.1,12.6,38.7,29.7c0.5,0,0.9,0,1.4,0
		c26.6,0,48.2,21.6,48.2,48.2c0,18.4-10.3,34.4-25.5,42.5c5,7.4,7.9,16.4,7.9,26c0,25.7-20.9,46.6-46.6,46.6
		c-17.7,0-33.1-9.9-41-24.4c-3.4,3.1-7,5.9-11,8.2c-5.3,31-32.3,54.5-64.8,54.5c-36.3,0-65.8-29.5-65.8-65.8
		c0-11.8,3.1-22.9,8.6-32.5C135.4,619,126.5,602.3,126.5,583.6z"/>
	<ellipse class="st3" cx="590" cy="744" rx="759" ry="136"/>
</g>
</svg>
